<svg xmlns="http://www.w3.org/2000/svg" version="1.1" xmlns:xlink="http://www.w3.org/1999/xlink" xmlns:svgjs="http://svgjs.dev/svgjs" width="2000" height="2058" viewBox="0 0 2000 2058"><g transform="matrix(1,0,0,1,-0.6236014456424073,0.833208274268145)"><svg viewBox="0 0 240 247" data-background-color="#ffffff" preserveAspectRatio="xMidYMid meet" height="2058" width="2000" xmlns="http://www.w3.org/2000/svg" xmlns:xlink="http://www.w3.org/1999/xlink"><g id="tight-bounds" transform="matrix(1,0,0,1,0.07483217347709115,-0.10000118743644748)"><svg viewBox="0 0 239.85033565304582 247.2" height="247.2" width="239.85033565304582"><g><svg viewBox="0 0 395.52 407.6398047715569" height="247.2" width="239.85033565304582"><g transform="matrix(1,0,0,1,0,281.0237215837595)"><svg viewBox="0 0 395.52 126.6160831877974" height="126.6160831877974" width="395.52"><g id="textblocktransform"><svg viewBox="0 0 395.52 126.6160831877974" height="126.6160831877974" width="395.52" id="textblock"><g><svg viewBox="0 0 395.52 126.6160831877974" height="126.6160831877974" width="395.52"><g transform="matrix(1,0,0,1,0,0)"><svg width="395.52" viewBox="-0.21555551886558533 -30.959999084472656 138.67556762695312 44.39999771118164" height="126.6160831877974" data-palette-color="#f2cd4f"><path d="M1.96 1.64L1.96 1.64Q1.96 4.6 5.08 5.2L5.08 5.2Q5.68 5.32 6.44 5.32L6.44 5.32Q11.44 5.32 14.36 2.1 17.28-1.12 17.28-6L17.28-6Q17.28-7.92 16.58-9.54 15.88-11.16 14.84-12.22 13.8-13.28 12.58-14.36 11.36-15.44 10.32-16.32 9.28-17.2 8.58-18.44 7.88-19.68 7.88-21.08L7.88-21.08Q7.88-24.76 11.18-27.86 14.48-30.96 18.28-30.96L18.28-30.96Q19.04-30.96 19.4-30.4 19.76-29.84 19.76-29.28L19.76-29.28 19.72-28.76Q19.44-28.92 18.32-28.92L18.32-28.92Q15.76-28.92 13.36-26.52 10.96-24.12 10.96-20.96L10.96-20.96Q10.96-19.68 11.66-18.46 12.36-17.24 13.4-16.32 14.44-15.4 15.64-14.26 16.84-13.12 17.88-12.02 18.92-10.92 19.62-9.34 20.32-7.76 20.32-6L20.32-6Q20.32-1.16 16.32 2.6 12.32 6.36 6.44 6.36L6.44 6.36Q1.48 6.36 0.16 3.16L0.16 3.16Q-0.88 0.52 0.96-2.68 2.8-5.88 6.28-7L6.28-7Q7.56-7.4 8.56-7.4 9.56-7.4 9.94-7.06 10.32-6.72 10.44-6L10.44-6Q6.68-6 4-2.96L4-2.96Q1.96-0.68 1.96 1.64ZM20.52-20.48L20.52-20.48Q20.52-20.28 20.14-20.28 19.76-20.28 19.44-20.44 19.12-20.6 19.12-20.88L19.12-20.88Q19.12-24.96 20.04-27.44 20.96-29.92 22.48-29.92L22.48-29.92Q22.88-29.92 23.16-29.64 23.44-29.36 23.44-28.92L23.44-28.92Q21.64-27.12 20.84-23.52L20.84-23.52Q20.52-22.08 20.52-20.48ZM22.44 12.52L22.44 12.52Q20.4 12.52 20.4 10.08L20.4 10.08Q20.4 8.36 21.58 5.16 22.76 1.96 23.88-0.28L23.88-0.28Q25.36-3.12 26.56-5.28L26.56-5.28Q27.48-15.16 29.16-17.56L29.16-17.56Q29.92-18.6 30.92-18.6L30.92-18.6Q31.84-18.6 31.84-17.6L31.84-17.6Q29.84-12.8 29.12-6.36L29.12-6.36Q28.08 3.04 27.2 6.4L27.2 6.4Q25.56 12.52 22.44 12.52ZM22.48 11.36L22.48 11.36Q24.12 11.36 24.96 7.12L24.96 7.12Q25.68 3.44 25.98 0.24 26.28-2.96 26.32-3.28L26.32-3.28Q23.28 3.2 22.6 5.24L22.6 5.24Q21.52 8.64 21.52 10 21.52 11.36 22.48 11.36ZM32.52-23.04L32-22.36Q31.16-22.36 31.16-23.96L31.16-23.96Q31.16-24.92 31.66-25.98 32.16-27.04 33.12-27.04L33.12-27.04Q33.96-27.04 33.96-26.12L33.96-26.12Q33.96-25.64 33.48-24.7 33-23.76 32.52-23.04L32.52-23.04ZM66.31-29.12L66.31-29.12Q64.51-29.12 63.33-26.7 62.15-24.28 61.41-20.42 60.67-16.56 59.89-12.44 59.11-8.32 57.55-4.26 55.99-0.2 53.75 2L53.75 2Q55.15 2.56 57.91 3.7 60.67 4.84 62.31 5.48L62.31 5.48Q66.83 7.24 69.07 7.24L69.07 7.24Q71.27 7.24 72.43 5.84L72.43 5.84Q72.71 5.48 72.87 5.04L72.87 5.04Q73.51 5.04 73.51 6L73.51 6Q73.51 7.64 72.01 8.62 70.51 9.6 68.63 9.6 66.75 9.6 64.39 8.86 62.03 8.12 60.59 7.48 59.15 6.84 56.05 5.22 52.95 3.6 52.19 3.24L52.19 3.24Q49.99 4.68 46.85 4.68 43.71 4.68 42.75 2.92L42.75 2.92Q42.47 2.44 42.47 1.86 42.47 1.28 43.23 0.58 43.99-0.12 45.91-0.12 47.83-0.12 51.95 1.36L51.95 1.36Q55.15-2.24 57.07-13.36L57.07-13.36Q57.79-17.68 58.67-21.74 59.55-25.8 61.21-28.38 62.87-30.96 65.43-30.96L65.43-30.96Q66.55-30.96 67.13-30.4 67.71-29.84 67.71-29.28L67.71-29.28 67.75-28.72Q67.35-29.12 66.31-29.12ZM68.71-20.56L68.71-20.56Q68.71-20.4 68.37-20.36 68.03-20.32 67.67-20.48 67.31-20.64 67.31-20.92L67.31-20.92Q67.31-25 68.23-27.5 69.15-30 70.67-30L70.67-30Q71.07-30 71.35-29.72 71.63-29.44 71.63-28.96L71.63-28.96Q69.79-27.12 69.03-23.6L69.03-23.6Q68.71-22.16 68.71-20.56ZM43.59 2.08L43.59 2.08Q43.59 2.8 44.61 3.22 45.63 3.64 47.31 3.64 48.99 3.64 50.67 2.48L50.67 2.48Q47.15 0.88 45.15 0.88L45.15 0.88Q43.91 0.88 43.63 1.76L43.63 1.76Q43.59 1.92 43.59 2.08ZM69.27 12.52L69.27 12.52Q72.87 12.52 74.91 9.12L74.91 9.12Q76.67 6.12 77.63 1.64L77.63 1.64Q70.39 1.8 66.51 7.16L66.51 7.16Q66.27 7.52 65.75 7.28L65.75 7.28Q65.47 7.12 65.59 6.88L65.59 6.88Q67.31 4.28 70.39 2.46 73.47 0.64 77.87 0.48L77.87 0.48Q78.31-1.52 78.71-4.2 79.11-6.88 79.63-9.4L79.63-9.4 79.27-9.4Q74.07-0.16 71.35-0.16L71.35-0.16Q68.31-0.16 68.31-4.84 68.31-9.52 70.31-14.26 72.31-19 73.95-19.36L73.95-19.36 74.19-19.4Q74.87-19.4 74.87-18.52L74.87-18.52Q74.43-17.44 73.75-15.7 73.07-13.96 71.95-9.98 70.83-6 70.83-3.78 70.83-1.56 71.79-1.56L71.79-1.56Q72.91-1.56 75.39-5.44L75.39-5.44Q79.03-11.12 81.71-16.96L81.71-16.96Q82.87-19.4 84.19-19.4L84.19-19.4Q85.03-19.4 85.03-18.48L85.03-18.48Q84.27-17.08 83.19-13.24 82.11-9.4 81.43-5.5 80.75-1.6 80.27 0.6L80.27 0.6Q83.31 1.12 83.79 3.24L83.79 3.24Q83.87 3.6 83.87 4.22 83.87 4.84 83.39 5.3 82.91 5.76 82.55 5.76L82.55 5.76Q82.63 5.48 82.59 4.78 82.55 4.08 82.33 3.6 82.11 3.12 81.51 2.6 80.91 2.08 79.95 1.84L79.95 1.84Q76.87 13.44 69.27 13.44L69.27 13.44Q65.99 13.44 64.91 11.12L64.91 11.12Q64.87 11 64.87 10.92L64.87 10.92Q64.87 10.68 65.29 10.62 65.71 10.56 65.91 10.88L65.91 10.88Q66.63 12.52 69.27 12.52ZM99.51-11.48L99.51-11.48Q97.99-11.48 97.99-14.8L97.99-14.8Q97.99-16.68 98.71-18.32L98.71-18.32Q95.99-15.96 92.63-9.54 89.27-3.12 89.27-1.16L89.27-1.16Q89.27-0.68 88.63-0.68L88.63-0.68Q87.47-0.68 87.47-3.84L87.47-3.84Q87.47-9.8 88.67-14.64 89.87-19.48 91.59-19.48L91.59-19.48Q92.35-19.48 92.35-18.6L92.35-18.6Q90.51-12.76 89.71-6.64L89.71-6.64 89.99-6.64Q93.23-14.12 97.15-18.32L97.15-18.32Q99.39-20.72 101.23-20.72L101.23-20.72Q101.63-20.72 101.89-20.48 102.15-20.24 102.15-19.88L102.15-19.88Q101.87-19.6 101.47-19.04 101.07-18.48 100.39-16.38 99.71-14.28 99.71-11.8L99.71-11.8Q99.71-11.48 99.51-11.48ZM103.14-3.4L103.14-3.4Q103.14-9.32 104.36-13.96 105.58-18.6 107.46-18.6L107.46-18.6Q108.38-18.6 108.38-17.6L108.38-17.6Q107.98-16.56 107.38-14.84 106.78-13.12 105.8-8.62 104.82-4.12 104.82-0.6L104.82-0.6Q104.82-0.04 104.22-0.04L104.22-0.04Q103.14-0.04 103.14-3.4ZM108.98-23.04L108.5-22.36Q107.66-22.36 107.66-23.96L107.66-23.96Q107.66-24.92 108.18-25.98 108.7-27.04 109.66-27.04L109.66-27.04Q110.46-27.04 110.46-26.12L110.46-26.12Q110.46-25.2 108.98-23.04L108.98-23.04ZM121.42-3.32Q121.58-3.68 122.1-3.68 122.62-3.68 122.62-3.44L122.62-3.44 122.62-3.32Q122.46-2.88 121.74-1.9 121.02-0.92 120.36-0.32 119.7 0.28 118.66 0.78 117.62 1.28 116.54 1.28L116.54 1.28Q112.34 1.28 111.18-2.76L111.18-2.76Q110.14-6.52 112.02-11.32 113.9-16.12 117.26-18.2L117.26-18.2Q119.02-19.28 120.62-19.28 122.22-19.28 122.94-18.36L122.94-18.36Q124.02-21.84 125.7-21.84L125.7-21.84Q126.34-21.84 126.34-21.16L126.34-21.16Q126.02-20.68 125.52-19.9 125.02-19.12 124.18-17.12 123.34-15.12 123.34-13.6L123.34-13.6Q123.34-13.08 122.9-13.08L122.9-13.08Q122.38-13.08 122.3-14L122.3-14Q122.3-15.56 122.58-16.92L122.58-16.92Q122.34-18.16 120.82-18.16L120.82-18.16Q117.94-18.16 115.76-13.8 113.58-9.44 113.58-5.28L113.58-5.28Q113.58-0.08 116.86-0.08L116.86-0.08Q118.14-0.08 119.28-0.88 120.42-1.68 120.9-2.48L120.9-2.48 121.42-3.32ZM129.18-1.36L129.18-1.36Q129.18 1.44 130.98 1.44L130.98 1.44Q132.66 1.44 134.12-1.32 135.58-4.08 135.58-8.28L135.58-8.28Q135.58-10.32 134.84-14.04 134.1-17.76 134.1-18.9 134.1-20.04 134.18-20.4L134.18-20.4Q133.66-19.56 131.18-14.82 128.7-10.08 126.78-7.32L126.78-7.32Q126.62-7.16 126.34-7.22 126.06-7.28 125.88-7.46 125.7-7.64 125.7-7.72 125.7-7.8 125.74-7.84L125.74-7.84Q127.62-10.56 130.12-15.34 132.62-20.12 134.3-22.48 135.98-24.84 137.62-24.84L137.62-24.84Q138.46-24.84 138.46-24.12L138.46-24.12Q138.46-23.64 137.78-22.84L137.78-22.84Q135.62-20.4 135.62-17.84L135.62-17.84Q135.62-16.32 136.78-11.98 137.94-7.64 137.94-5.68L137.94-5.68Q137.94-2.16 135.98 0.3 134.02 2.76 131.54 2.76L131.54 2.76Q128.02 2.76 128.02-1.28L128.02-1.28Q128.02-4.32 129.88-7.64 131.74-10.96 133.62-12.12L133.62-12.12Q133.98-12.36 134.08-11.84 134.18-11.32 133.94-11.16L133.94-11.16Q131.82-9.96 130.26-6.04L130.26-6.04Q129.18-3.28 129.18-1.36Z" opacity="1" transform="matrix(1,0,0,1,0,0)" fill="#f2cd4f" class="undefined-text-0" data-fill-palette-color="primary" id="text-0"></path></svg></g></svg></g></svg></g></svg></g><g transform="matrix(1,0,0,1,87.1391576627627,0)"><svg viewBox="0 0 221.24168467447458 221.24168467447458" height="221.24168467447458" width="221.24168467447458"><g><svg></svg></g><g id="icon-0"><svg viewBox="0 0 221.24168467447458 221.24168467447458" height="221.24168467447458" width="221.24168467447458"><g><path d="M0 110.621c0-61.094 49.527-110.621 110.621-110.621 61.094 0 110.621 49.527 110.621 110.621 0 61.094-49.527 110.621-110.621 110.621-61.094 0-110.621-49.527-110.621-110.621zM110.621 209.823c54.788 0 99.202-44.414 99.202-99.202 0-54.788-44.414-99.202-99.202-99.203-54.788 0-99.202 44.414-99.203 99.203 0 54.788 44.414 99.202 99.203 99.202z" data-fill-palette-color="accent" fill="#f2cd4f" stroke="transparent"></path><ellipse rx="109.51463391386491" ry="109.51463391386491" cx="110.62084233723729" cy="110.62084233723729" fill="#f2cd4f" stroke="transparent" stroke-width="0" fill-opacity="1" data-fill-palette-color="accent"></ellipse></g><g transform="matrix(1,0,0,1,52.19372058086828,52.09266957298658)"><svg viewBox="0 0 116.85424351273802 117.05634552850142" height="117.05634552850142" width="116.85424351273802"><g><svg xmlns="http://www.w3.org/2000/svg" xmlns:xlink="http://www.w3.org/1999/xlink" xml:space="preserve" version="1.1" style="shape-rendering:geometricPrecision;text-rendering:geometricPrecision;image-rendering:optimizeQuality;" viewBox="302.03564453125 250.67788696289062 59395.91796875 59498.64453125" x="0" y="0" fill-rule="evenodd" clip-rule="evenodd" height="117.05634552850142" width="116.85424351273802" class="icon-s-0" data-fill-palette-color="quaternary" id="s-0"><g fill="#ffffff" data-fill-palette-color="quaternary"><path class="" d="M36453.73 59477.03c-69.89 208.83-295.86 321.46-504.69 251.57-208.83-69.89-321.46-295.86-251.57-504.69 313.91-940.84 529.88-1910.55 620.33-2908.05 90.06-993.19 55.19-2018.84-132-3076.91-37.36-211.15-255.97-754.56-606.69-1536.51-352.6-786.17-837.47-1805.46-1406.56-2967.96-1360.21 1464.83-2636.88 3021.01-3725.41 4710.67-119.08 185.53-366.04 239.39-551.57 120.31-185.53-119.08-239.39-366.04-120.31-551.57 2461.7-3821.15 5837.82-6947.88 8998.01-9874.63 1560.62-1445.33 3067.92-2841.28 4389.73-4256.56 854.42-914.83 1511.8-1830.37 2153.41-2723.95 944.44-1315.35 1855.84-2584.65 3302.01-3761.02 611.8-497.65 1234.33-962.5 1855.99-1426.71 1554.02-1160.4 3102.72-2316.84 3975.88-3569.63 23.07-33.19 50.28-61.78 80.44-85.6-157.19-350.69-243.79-795.21-201.54-1253.65 43.78-474.85 223.01-968.2 600.6-1393.81l20.6-23.22 1740.43-1494.39c-3130.04-1576.57-6382.62 903.78-9392.27 3204.49-4.43 3.65-8.94 7.25-13.57 10.74l-0.66 0.5-0.18-0.23c-2692.38 2058.07-5452.67 3912.29-8183.14 5746.49-3285.07 2206.76-6526.76 4384.38-9553.03 6856.09-613.77 501.29-1270.74 997.35-1962.83 1519.93-3255.92 2458.45-7296.23 5509.94-9005.85 10638.04-133.33 455.31-263.86 909.06-394.4 1362.83-606.73 2109.14-1213.5 4218.31-2108.42 6507.93-80.25 205.38-311.81 306.82-517.19 226.57-205.38-80.25-306.82-311.81-226.57-517.19 878.53-2247.68 1480.99-4341.89 2083.42-6436.07l56.69-197.04c100.25-401.19 213.66-790.53 338.67-1169.02 579.24-1977.74 1213.01-3989.93 2137.51-6185.73 460.31-1093.32 1179.01-2450.67 1963.36-3932.01 857.68-1619.85 1794.35-3388.87 2538.59-5083.1 86.62-197.21 177.29-393.93 277.52-611.43 332.09-720.62 772.57-1676.65 1084.7-2626.63 6.22-31.67 16.25-62.52 29.87-91.85 399.07-1247.86 562.9-2471.72-46.42-3123.32l-960.57 2742.97c-2.95 8.47-6.19 16.76-9.64 24.89l0.27 0.11c-99.33 233.99-221.25 439.84-360.9 619.03-150.16 192.66-318.48 351.44-499.43 478.7-379.87 267.14-815.71 399-1257.62 416.96-448.81 18.24-903.22-82.33-1308.49-278.51-407.88-197.45-769.13-492.44-1028.77-861.63-246.4-350.39-401.75-767.07-420.6-1231.08-7.47-183.91 6.12-372.18 43.51-563.2 35.35-180.53 92.47-367.02 173.74-558.48 4.25-9.98 8.87-19.7 13.81-29.15l1352.39-2688.91c-463.8 29.2-860.32 200.56-1209.16 465.29-505.32 383.48-928.4 967.99-1313.94 1611.78l-6580.84 12459.72-0.49-0.26c-8.52 16.14-18.23 31.9-29.2 47.13-1202.35 1672.69-2515.58 2827.39-3838.93 3990.96-2852.53 2508.14-5753.53 5058.91-7469.7 13012.08-45.73 215.73-257.71 353.55-473.44 307.82-215.73-45.73-353.55-257.71-307.82-473.44 1604.89-7437.44 4216.1-10303.5 6885.32-12704.39-208.29 42.91-426.31 33-642.75-52.62-6.85-2.71-16.9-6.92-30.45-12.75-264.28-113.77-395.09-288.6-445.59-509.09-39.9-174.11-15.71-344.7 30.13-524.3 246.77-966.95 551.36-2061.99 898.55-3192.2 302.48-984.65 632.77-1980.01 978.99-2918.08 396.85-1075.27 819.05-2089.09 1250.93-2946.51 392.33-778.88 793.94-1430.11 1193.96-1884.88l18.36-20.88 30.08-24.44c990.31-804.87 2170.49-1563.46 3464.96-2097.59 1029.07-424.61 2131.1-707.38 3269.22-759.79l1094.6-2072.44c6.13-11.63 12.75-22.83 19.83-33.59 429.81-717.75 912.36-1377.81 1516.96-1836.62 582.09-441.73 1261.71-690.79 2088.51-622.42l274.41-545.6c311.77-715.61 1058.09-927.94 1847.88-812.98 277.07 40.33 560.51 122.01 829.15 236.04 267.06 113.36 521.9 260.21 743.57 431.64 633 489.54 999.42 1175.67 698.83 1898.32l-246.3 703.33c1169.77 830.87 1043.96 2455.35 556.91 4054.16 308.61 551.99 719.57 1308.13 1204.22 2212.35 529.68 988.23 1109.61 2082.63 1713.13 3230.21 2904.76-2324.37 5984.43-4393.23 9103.03-6488.16 2715.32-1824.02 5460.31-3667.98 8144.26-5719.7l1.74-1.32-0.18-0.24 10.84-7.91c3315.48-2534.5 6907.77-5273.77 10591.43-3087.21 252.72-112.02 558.65-189.77 859.67-200.59 473.99-17.05 950.13 123.38 1249.8 530.74 2.44 3.31 9.42 13.31 20.68 29.62 177.6 257.15 197.6 492.09 117.74 721.78-64.02 184.1-188.89 331.26-340.33 475.51-683.75 651.22-1372.84 1299.23-2124.29 1979.34-738.42 668.29-1504.74 1338.13-2332.03 2023.68-964.37 1222.56-2431.85 2318.43-3904.04 3417.73-633.08 472.73-1267.06 946.14-1830.99 1404.85-1364.91 1110.27-2245.61 2336.83-3158.25 3607.88-658.83 917.55-1333.84 1857.66-2215.91 2802.09-1322.45 1415.97-2850.93 2831.53-4433.49 4297.18-1511.79 1400.12-3073.62 2846.57-4556.35 4391.36 625.2 1272.58 1161.25 2396.38 1549.69 3262.44 378.17 843.16 617.52 1449.57 666.07 1724.01 198.69 1123.06 235.05 2218.95 138.26 3286.29-96.39 1062.98-325.38 2092.89-657.83 3089.29z m-29621.81-47408.55l-498.92 32.7-32.7-498.92 498.92-32.7 32.7 498.92z m1177.42 17961.45l-498.92 32.7-32.71-498.93 498.92-32.7 32.71 498.93z m-130.84-1995.72l-498.92 32.7-32.71-498.93 498.92-32.7 32.71 498.93z m-130.84-1995.72l-498.92 32.7-32.71-498.93 498.92-32.7 32.71 498.93z m-130.83-1995.72l-498.92 32.7-32.7-498.93 498.92-32.7 32.7 498.93z m-130.82-1995.72l-498.92 32.7-32.7-498.93 498.92-32.7 32.7 498.93z m-130.82-1995.72l-498.92 32.7-32.7-498.93 498.92-32.7 32.7 498.93z m-130.82-1995.72l-498.92 32.7-32.7-498.93 498.92-32.7 32.7 498.93z m-130.82-1995.72l-498.92 32.7-32.7-498.93 498.92-32.7 32.7 498.93z m-130.82-1995.71l-498.92 32.7-32.7-498.92 498.92-32.7 32.7 498.92z m2511.6-2186.14l-488.24 107.8-107.79-488.24 488.24-107.8 107.79 488.24z m3880.64 17576.68l-488.24 107.8-107.8-488.24 488.24-107.8 107.8 488.24z m-431.2-1952.97l-488.24 107.8-107.8-488.24 488.24-107.8 107.8 488.24z m-431.2-1952.97l-488.24 107.8-107.79-488.24 488.24-107.8 107.79 488.24z m-431.18-1952.97l-488.24 107.8-107.79-488.24 488.24-107.8 107.79 488.24z m-431.18-1952.97l-488.24 107.8-107.79-488.24 488.24-107.8 107.79 488.24z m-431.18-1952.96l-488.24 107.8-107.79-488.24 488.24-107.8 107.79 488.24z m-431.18-1952.96l-488.24 107.8-107.79-488.24 488.24-107.8 107.79 488.24z m-431.18-1952.96l-488.24 107.8-107.79-488.24 488.24-107.8 107.79 488.24z m-431.17-1952.96l-488.24 107.8-107.79-488.24 488.24-107.8 107.79 488.24z m1733.02-2514.09l-473.6 160.32-160.31-473.6 473.6-160.32 160.31 473.6z m5771.2 17049.71l-473.6 160.32-160.31-473.61 473.6-160.32 160.31 473.61z m-641.25-1894.43l-473.6 160.32-160.31-473.6 473.6-160.32 160.31 473.6z m-641.25-1894.41l-473.6 160.32-160.31-473.6 473.6-160.32 160.31 473.6z m-641.25-1894.41l-473.6 160.32-160.31-473.6 473.6-160.32 160.31 473.6z m-641.25-1894.41l-473.6 160.32-160.31-473.6 473.6-160.32 160.31 473.6z m-641.24-1894.41l-473.6 160.32-160.31-473.6 473.6-160.32 160.31 473.6z m-641.24-1894.41l-473.6 160.32-160.31-473.6 473.6-160.32 160.31 473.6z m-641.24-1894.41l-473.6 160.32-160.31-473.6 473.6-160.32 160.31 473.6z m-641.24-1894.41l-473.6 160.32-160.31-473.6 473.6-160.32 160.31 473.6z m1690.8-2709.62l-434.86 246.78-246.78-434.85 434.86-246.78 246.78 434.85z m7896.96 13915.38l-434.86 246.78-246.78-434.86 434.86-246.78 246.78 434.86z m-987.12-1739.44l-434.86 246.78-246.78-434.86 434.86-246.78 246.78 434.86z m-987.12-1739.44l-434.86 246.78-246.78-434.85 434.86-246.78 246.78 434.85z m-987.12-1739.42l-434.86 246.78-246.78-434.85 434.86-246.78 246.78 434.85z m-987.12-1739.42l-434.86 246.78-246.78-434.85 434.86-246.78 246.78 434.85z m-987.12-1739.42l-434.86 246.78-246.78-434.85 434.86-246.78 246.78 434.85z m-987.12-1739.42l-434.86 246.78-246.78-434.85 434.86-246.78 246.78 434.85z m-987.12-1739.41l-434.86 246.78-246.78-434.85 434.86-246.78 246.78 434.85z m889.65-3288.17l-286.22 409.98-409.97-286.21 286.22-409.98 409.97 286.21z m22958.83 16027.84l-286.22 409.98-409.98-286.21 286.22-409.98 409.98 286.21z m-1639.92-1144.86l-286.22 409.98-409.98-286.21 286.22-409.98 409.98 286.21z m-1639.92-1144.85l-286.22 409.98-409.98-286.21 286.22-409.98 409.98 286.21z m-1639.92-1144.85l-286.22 409.98-409.98-286.21 286.22-409.98 409.98 286.21z m-1639.92-1144.85l-286.22 409.98-409.98-286.21 286.22-409.98 409.98 286.21z m-1639.92-1144.85l-286.22 409.98-409.98-286.21 286.22-409.98 409.98 286.21z m-1639.92-1144.85l-286.22 409.98-409.98-286.21 286.22-409.98 409.98 286.21z m-1639.92-1144.85l-286.22 409.98-409.98-286.21 286.22-409.98 409.98 286.21z m-1639.92-1144.84l-286.22 409.98-409.98-286.21 286.22-409.98 409.98 286.21z m-1639.92-1144.84l-286.22 409.98-409.98-286.21 286.22-409.98 409.98 286.21z m-1639.92-1144.84l-286.22 409.98-409.98-286.21 286.22-409.98 409.98 286.21z m-1639.92-1144.84l-286.22 409.98-409.98-286.21 286.22-409.98 409.98 286.21z m-1639.91-1144.84l-286.22 409.98-409.97-286.21 286.22-409.98 409.97 286.21z m-1639.9-1144.84l-286.22 409.98-409.97-286.21 286.22-409.98 409.97 286.21z m4896.99-3541.69c459.06-251.5 965-363.86 1411.85-342.22 104.23 5.05 205.79 17.4 303.6 36.93-439.69-1851.8-694.25-3682.8-29.73-5724.2 68.17-209.69 293.44-324.42 503.13-256.25 179.1 58.23 288.9 231.06 274.65 410.91l0.35 0.03c-26.77 335.61 51.68 602.1 243.04 831.62 221.51 265.69 593.99 504.58 1123.61 751.84 4.66 2.18 9.24 4.47 13.78 6.8l0.28-0.55c413.88 213.11 732.95 440 975.76 675.21 249.14 241.33 418.7 492.68 527.69 748.25 6.8 14.06 12.69 28.41 17.74 42.98 158.39 396.42 169.4 787.8 105.46 1161.11-60.39 352.48-186.94 680.94-314.18 978.84-86.29 202.79-320.65 297.23-523.44 210.94-202.79-86.29-297.23-320.65-210.94-523.44 107.6-251.92 214.02-526.13 261.06-800.72 38.92-227.27 37.36-459.48-41.39-685.19-120.03-129.88-277.14-251.77-481.16-361.38-240-128.94-540.17-239.52-914.27-325.05-6.06-0.9-12.1-1.92-18.17-3.1-409.04-79.77-736.12-114.75-917.67-29.8-123.23 57.67-192.7 227.91-190.68 576.13 91.2 1011.71 332.63 2010.51 594.93 3028.58 144.15 304.78 140.22 646.17 9.37 978.57-122.86 312.15-362.23 617.48-695.68 867.09-100.45 75.19-209.41 145.5-326.15 209.45-458.99 251.45-964.35 363.8-1410.3 342.2-493.14-23.89-926.8-210.51-1184.06-554.17-35.38-47.27-64.76-92.4-88.28-135.33-175.2-319.79-180.11-684.81-40.48-1039.55 122.88-312.15 362.23-617.47 695.68-867.08 100.11-74.93 208.67-145.02 324.96-208.79l-0.36-0.66z m1374.35 454.66c-307.74-14.9-662.07 65.7-989.97 245.34l-0.37-0.67-1.19 0.67c-83.07 45.51-159.67 94.82-229.3 146.95-211.97 158.67-359.69 341.48-430.04 520.2-53.58 136.12-57.9 264.85-3.28 364.55 9.67 17.65 18.29 31.59 25.78 41.59 107.24 143.26 322.6 222.75 584.06 235.41 308.63 14.95 663.55-65.64 991.54-245.32 83.07-45.51 159.65-94.82 229.29-146.95 211.97-158.67 359.69-341.48 430.04-520.21 24.73-62.83 38.97-124.08 41.76-181.63l-54.46-210.23c-3.45-5.41-6.72-10.19-9.79-14.29-107.24-143.26-322.61-222.75-584.07-235.41z m773.5-4926.8c-22.3 168.88-38.57 336.9-49.4 504.21 166.23-55.2 350.09-76.19 550.03-72.82-196.67-136.09-363.13-278.56-500.63-431.39z m6546.18 9169.96l17.38-11.02c599.28-378.86 1258.29-547.96 1841.42-514.95 218.84 12.39 427.85 52.69 620.89 120.54-628.82-3005.71-1033.4-5957.35-119.28-9239.93 58.68-212.28 278.35-336.81 490.63-278.13 185.71 51.34 304.26 225.88 291.74 410.91l0.45 0.03c-41.33 605.58 81.08 1088.23 379.25 1506.28 316.62 443.92 835.97 835.93 1568.63 1235.77 5.12 2.79 10.13 5.7 15.09 8.68l0.53-0.87c544.53 327.74 963.35 675.59 1281.14 1035.44 327.77 371.13 545.69 752.06 680.87 1135.18 204.97 580.85 219.82 1158.48 138.83 1711.08-77.32 527.61-242.45 1027.65-408.73 1482.65-75.07 207.1-303.84 314.13-510.94 239.06-207.1-75.07-314.13-303.84-239.06-510.94 150.89-412.9 300.36-864.13 368.11-1326.39 61.55-420.01 55.13-852.61-83.57-1277.47-176.84-232.03-410.12-448.36-715.68-640.26-336.88-211.58-760.37-392.59-1290.66-531.62-564.57-128.42-1020.03-182.16-1287.79-35.71-236.03 129.1-367.6 474.19-359.61 1165.73 126.23 1619.65 457.52 3215.04 816.19 4841.19 189.21 448.12 169.41 962.91-26.57 1460.76-215.69 547.9-649.32 1079.54-1250.05 1465.87l0.43 0.64c-9.74 6.49-19.63 12.45-29.67 17.97-597.78 376.36-1254.48 544.32-1835.8 511.4-625.62-35.43-1170.96-298.92-1492.39-782.25-11.94-15.94-22.51-32.56-31.76-49.71-303.81-494.39-315.14-1098.76-86.32-1680.03 216.36-549.64 652.09-1082.96 1255.81-1469.6l0.49-0.3z m1815.04 270.91c-425.72-24.1-915.43 104.84-1370.22 392.37-9.08 6.36-18.51 12.4-28.26 18.09-451.47 292.93-773.27 683.28-929.1 1079.15-138.12 350.86-141.78 699.9 20.31 967.37l7.24 10.46-0.54 0.4 3.7 5.89c173 270.14 496.55 418.67 879.76 440.37 424.07 24.02 911.64-103.84 1364.94-389.03 4.25-3.08 8.57-6.12 12.98-9.06l0.42 0.57 5.9-3.75c458.96-293.91 785.86-688.33 943.33-1088.35 66.99-170.17 102.33-339.92 102.5-500.14l-90.53-408.6c-12.81-25.78-27.01-50.92-42.65-75.34-173.02-270.17-496.58-418.7-879.78-440.4z m951.75-7973.05c-73.5 516.63-115.95 1027.36-132.69 1533.85l23.89-13.38c458.31-250.68 1048.58-214.31 1741.07-65.21-679.59-401.89-1184.46-817.24-1526.58-1296.89-37.22-52.18-72.41-104.95-105.69-158.37z m7461.87 13626.99c809.5-518.4 1700.39-750.07 2486.34-705.56 391.48 22.17 758.53 111.88 1080.68 267.92-901.57-4248.32-1515.17-8404.57-227.95-13026.89 58.68-212.28 278.35-336.81 490.63-278.13 185.71 51.34 304.26 225.88 291.74 410.91l0.45 0.03c-59.86 876.96 119.06 1578.23 554.31 2188.49 453.69 636.11 1190.71 1193.93 2227.18 1759.57 5.12 2.79 10.13 5.7 15.09 8.68l0.53-0.87c741.8 446.46 1310.78 918.54 1740.93 1405.62 440.11 498.37 732.63 1009.54 913.94 1523.42 274.73 778.57 294.29 1555.09 185.26 2299.08-105.36 719-331.31 1402.96-558.92 2025.79-75.07 207.1-303.84 314.13-510.94 239.06-207.1-75.07-314.13-303.84-239.06-510.94 212.22-580.71 422.51-1215.87 518.3-1869.53 89.63-611.58 78.51-1243.16-129.86-1865.68-258.06-344.24-599.76-664.32-1049.14-946.54-480.63-301.84-1083.28-559.57-1836.34-756.71-817.07-185.98-1482.32-260.63-1895.11-34.85-380.75 208.26-592.65 732.94-578.86 1767.98 176.55 2258.15 638.91 4480.86 1138.76 6746.45 250.88 585.7 225 1263.12-33.71 1920.29-288.67 733.3-871.85 1446-1681.1 1964.23-809.48 518.4-1700.38 750.07-2486.35 705.56-832.83-47.16-1555.17-399.91-1969.57-1046.99-414.8-647.72-433.46-1451.03-128.33-2226.15 288.66-733.3 871.86-1446.01 1681.1-1964.24z m2442.58 91.32c-627.11-35.52-1347.11 155.19-2011.32 580.56-664.47 425.52-1138.84 999.31-1368.6 1582.98-213.3 541.85-211.34 1086.1 56.45 1504.27 268.18 418.77 761.19 648.52 1341.45 681.37 627.12 35.52 1347.13-155.2 2011.33-580.56 664.47-425.52 1138.84-999.31 1368.6-1582.97 102.03-259.17 154.76-518.87 152.76-765.08-44.74-201.63-89.39-402.85-133.77-603.75-22.27-46.43-47.38-91.64-75.43-135.45-268.19-418.78-761.21-648.52-1341.47-681.37z m1228.59-11377.01c-164.05 982.14-246.02 1947.9-263.84 2902.92 83.36-70.49 173.25-131.73 269.47-184.36 626.95-342.92 1464.46-268.27 2455.95-42.23 7.41 1.67 14.71 3.55 21.92 5.6 340.2 89.09 653.96 190.03 943.27 301.56-181.25-131-378.04-260.83-591.44-389.27l0.34-0.57c-1134.43-620.73-1953.57-1249.7-2480.64-1988.69-138.9-194.76-257.1-395.86-355.03-604.96z m-36052.15 4492.65c-1449.03-0.01-2783.19-360.06-3748.2-1165.38-866.76-723.34-1427.38-1791.47-1499.37-3261.08-1.79-36.87-2.7-58.52-2.7-64.92 0-376.41 156.66-680.77 405.25-896.76 184.29-160.12 418.69-266.12 673.44-310.65-238.26-266.72-442.9-568.83-608.17-908.16-267.02-548.2-431.11-1193.38-467.82-1942.98-1.79-36.87-2.7-58.52-2.7-64.92 0-376.4 156.66-680.76 405.25-896.75 231.04-200.73 540.84-316.4 870.76-332.54 41.42-2.02 68.15-3.05 79.82-3.05l7788.86 0c11.67 0 38.41 1.03 79.87 3.05 329.92 16.15 639.69 131.8 870.72 332.55 248.58 215.98 405.22 520.32 405.22 896.7 0 6.4-0.91 28.07-2.7 64.96-36.55 746.25-199.89 1389.54-465.72 1937.12-166.14 342.22-371.33 646.29-609.88 914.09 254.61 44.57 488.87 150.52 673.07 310.58 248.58 215.98 405.23 520.31 405.23 896.72 0 6.4-0.91 28.07-2.7 64.96-71.97 1469.61-632.59 2537.73-1499.34 3261.08-964.99 805.32-2299.17 1165.37-3748.19 1165.38z m-3235.7-1777.88c812.32 677.9 1966.32 981 3235.7 981 1269.37 0 2423.38-303.09 3235.69-981 700.97-584.99 1155.08-1463.38 1214.96-2686.08 0.27-5.73-0.42-3.43-0.42-27.46 0-126.58-49.15-225.86-127.11-293.6-95.51-82.99-233.14-131.29-386.34-138.79-2624.13 4.34-5249.41 4.34-7873.54 0-153.22 7.49-290.86 55.79-386.38 138.79-77.98 67.75-127.13 167.05-127.13 293.64 0 24.01-0.69 21.69-0.42 27.42 59.9 1222.7 514.01 2101.09 1214.99 2686.08z m205.5-3945.86l6062.42 0c21.83-28.93 48-55.37 78.37-78.29 396.7-300.03 722.21-683.37 952.46-1157.66 220.69-454.6 356.6-994.8 387.6-1627.74 0.27-5.73-0.42-3.43-0.42-27.46 0-126.56-49.14-225.84-127.1-293.58-95.51-82.99-233.14-131.29-386.34-138.79-2624.14 4.34-5249.41 4.34-7873.55 0-153.22 7.49-290.86 55.79-386.38 138.78-77.98 67.75-127.13 167.05-127.13 293.63 0 24.01-0.69 21.69-0.42 27.42 31.02 633.55 167.69 1174.68 389.7 1630.48 232.76 477.9 559.6 862.1 956.53 1160.71 28.47 21.35 53.25 45.79 74.26 72.5z m15679.95 31878.2c112.72-79.28 268.37-52.17 347.65 60.55 79.28 112.72 52.17 268.37-60.55 347.65-355.26 249.84-763.32 373.18-1177.34 390-423.94 17.23-853.76-78.05-1237.6-263.86-385.48-186.6-726.6-464.98-971.35-813.02-230.65-327.97-376.04-717.52-393.64-1150.78-5.39-137.52 101.73-253.4 239.25-258.79 137.52-5.39 253.4 101.73 258.79 239.25 13.43 330.76 125.66 629.91 303.8 883.22 195.15 277.52 469.13 500.44 779.95 650.9 312.46 151.25 660.26 228.9 1001.26 215.04 321.07-13.05 636.51-107.99 909.78-300.16z m725.5-1425.11c112.72-79.28 268.37-52.17 347.65 60.55 79.28 112.72 52.17 268.37-60.55 347.65-355.25 249.83-763.31 373.18-1177.32 390-423.95 17.23-853.77-78.05-1237.6-263.85-385.48-186.6-726.6-464.98-971.36-813.01-230.65-327.98-376.04-717.53-393.65-1150.79-5.39-137.52 101.73-253.4 239.25-258.79 137.52-5.39 253.4 101.73 258.79 239.25 13.44 330.77 125.67 629.92 303.81 883.23 195.16 277.5 469.13 500.42 779.96 650.89 312.44 151.24 660.25 228.89 1001.26 215.03 321.07-13.05 636.5-107.99 909.76-300.16z m32904.13-8259.47c512.08-438.43 990.82-861.4 1448.91-1275.99 710.75-643.28 1405.18-1296.82 2108.67-1966.84 70.63-67.28 124.87-124.38 137.21-159.89 3.48-10.03-9.8 9.89-20.88-6.16-1.8-2.61-0.86-0.91-8.18-10.86-117.91-160.28-342.65-214.2-577.92-205.74-278.75 10.02-555.93 103.06-726.67 220.98l-4.58 3.39-2054.27 1763.86c-240.74 281-355.93 604.16-384.65 915.67-24.07 261.1 10.77 511.71 82.36 721.58z m-32280.84-521.15l-2026.38 4028.98c-55.22 131.97-94.49 261.79-119.33 388.64-26.13 133.5-35.83 259.92-31.01 378.82 12.18 300.03 114.46 572.05 276.84 802.96 180.28 256.35 434.1 462.63 722.53 602.25 291.04 140.88 614.24 213.24 930.35 200.39 293.19-11.91 580.84-98.33 829.5-273.2 120.67-84.86 232.17-189.8 330.69-316.2 94.53-121.29 179.23-265.03 251.22-432.9l1484.52-4239.14c4.04-13.1 8.79-26.11 14.27-39 139.07-327.62-85.42-684.58-447.75-964.79-166.56-128.82-361.51-240.63-568.57-328.52-205.46-87.21-420.57-149.44-629.15-179.8-454.2-66.11-867.67 20.31-1006.79 348.07-3.42 7.85-7.03 15.68-10.94 23.44z m-6151.88 5594.44c-871.91 94.26-1721.33 332.27-2526.18 664.37-1202.47 496.17-2304.37 1202.24-3234.65 1954.31-349.29 403.09-707.53 989.01-1063.33 1695.36-415.08 824.07-825.09 1809.92-1213.43 2862.13-168.92 457.69-332.94 925.43-490.88 1395.93 276.8 187.71 543.41 474.09 722.24 827.95 188.05 372.1 284.33 821.01 202.14 1312.14l-4.68 27.97-698.87 2247.93c1138.92-1007.84 2258.86-2049.93 3270.58-3451.27l5037.06-9536.82z m-8793.22 9380.6c-71.87 224.92-142.2 449.53-210.86 673.03-335.06 1090.73-636.33 2176.2-886.05 3154.7-11.16 43.73-20.15 81.87-24.67 109.45 135.25 47.36 297.48-9.88 443.9-109.17 185.79-125.97 335.2-308.28 401.47-462.23l2.58-6.39 679.36-2185.16c43.75-296.71-16.6-568.56-131.24-795.4-74.77-147.96-170.59-275.94-274.49-378.83z m18305.34-7801.17c-273.06 707.23-579.69 1372.71-831.24 1918.57-106.97 232.12-203.71 442.03-271.26 595.81-759.46 1728.89-1701.24 3507.55-2563.59 5136.22-779.75 1472.66-1494.23 2822.03-1935.24 3869.51-192.46 457.12-372.36 907.33-541.92 1351.86 2024.32-2800.11 4680.68-4806.19 6962.42-6529.06 650.2-490.94 1269.7-958.72 1817.64-1401.06-669.54-1274.09-1278.26-2424.25-1783.56-3367.01-310.49-579.28-597.27-1108.94-853.25-1574.84z" fill="#ffffff" fill-rule="nonzero" data-fill-palette-color="quaternary"></path></g></svg></g></svg></g></svg></g></svg></g><g></g></svg></g><defs></defs></svg><rect width="239.85033565304582" height="247.2" fill="none" stroke="none" visibility="hidden"></rect></g></svg></g></svg>